<?xml version="1.0" standalone="no"?><!DOCTYPE svg PUBLIC "-//W3C//DTD SVG 1.1//EN" "http://www.w3.org/Graphics/SVG/1.1/DTD/svg11.dtd"><svg t="1783301902333" class="icon" viewBox="0 0 1024 1024" version="1.1" xmlns="http://www.w3.org/2000/svg" p-id="6079" width="256" height="256" xmlns:xlink="http://www.w3.org/1999/xlink"><path d="M20.48 327.76192a163.84 163.84 0 0 1 163.84-163.84h655.36a163.84 163.84 0 0 1 163.84 163.84v327.68a163.84 163.84 0 0 1-163.84 163.84H184.32a163.84 163.84 0 0 1-163.84-163.84v-327.68z m163.84-81.92a81.92 81.92 0 0 0-81.92 81.92v327.68a81.92 81.92 0 0 0 81.92 81.92h655.36a81.92 81.92 0 0 0 81.92-81.92v-327.68a81.92 81.92 0 0 0-81.92-81.92H184.32z m68.97664 84.00896a40.96 40.96 0 0 1 45.71136 14.336L389.12 464.24064l90.112-120.13568a40.96 40.96 0 0 1 73.728 24.576v245.76a40.96 40.96 0 0 1-81.92 0v-122.88l-49.152 65.536a41.04192 41.04192 0 0 1-65.536 0l-49.152-65.536v122.88a40.96 40.96 0 1 1-81.92 0v-245.76a40.96 40.96 0 0 1 28.01664-38.87104zM757.76 368.76288a40.96 40.96 0 0 0-81.92 0v146.8416l-12.00128-12.00128a40.96 40.96 0 0 0-57.91744 57.91744l81.92 81.92a40.96 40.96 0 0 0 57.91744 0l81.92-81.92a40.96 40.96 0 0 0-57.91744-57.91744l-12.00128 12.00128V368.72192z" fill="#1296db" p-id="6080"></path></svg>